<svg xmlns="http://www.w3.org/2000/svg" viewBox="0 0 512 512" width="512" height="512">
  <defs>
    <linearGradient id="grad1" x1="0%" y1="0%" x2="100%" y2="100%">
      <stop offset="0%" style="stop-color:#5B8DEF;stop-opacity:1" />
      <stop offset="100%" style="stop-color:#8B5CF6;stop-opacity:1" />
    </linearGradient>
    <linearGradient id="grad2" x1="100%" y1="0%" x2="0%" y2="100%">
      <stop offset="0%" style="stop-color:#7C3AED;stop-opacity:1" />
      <stop offset="100%" style="stop-color:#5B8DEF;stop-opacity:1" />
    </linearGradient>
  </defs>
  <rect width="512" height="512" fill="none"/>
  <g transform="translate(56, 56)">
    <path d="M120 0 L280 0 L360 80 L360 240 L280 320 L120 320 L40 240 L40 80 Z" fill="url(#grad1)" stroke="#4C1D95" stroke-width="3"/>
    <path d="M200 80 L280 80 L320 120 L320 200 L280 240 L200 240 L160 200 L160 120 Z" fill="url(#grad2)" stroke="#6D28D9" stroke-width="2"/>
    <circle cx="240" cy="160" r="30" fill="#A78BFA" stroke="#5B21B6" stroke-width="2"/>
    <path d="M80 80 L120 120 M320 80 L280 120 M320 240 L280 200 M80 240 L120 200" stroke="#C4B5FD" stroke-width="2" stroke-linecap="round"/>
  </g>
  <text x="256" y="470" text-anchor="middle" font-family="Arial, sans-serif" font-size="48" font-weight="bold" fill="#5B21B6">efx-forms</text>
</svg>